<svg xmlns="http://www.w3.org/2000/svg" viewBox="0 0 300 300"><path d="M282.654 29.83c-3.191-11.663-12.536-20.859-24.388-23.999C236.612 0 149.999 0 149.999 0S63.386 0 41.732 5.607c-11.624 3.14-21.198 12.56-24.389 24.223-5.697 21.307-5.697 65.492-5.697 65.492s0 44.409 5.697 65.492c3.191 11.663 12.537 20.859 24.389 23.999 21.882 5.831 108.267 5.831 108.267 5.831s86.613 0 108.267-5.607c11.852-3.14 21.197-12.336 24.388-23.999 5.698-21.307 5.698-65.492 5.698-65.492s.229-44.409-5.698-65.716z" fill="red"/><path d="M122.419 54.502v81.64l72.026-40.82-72.026-40.82z" fill="#fff"/><path d="M53.8 297.029c-2.852-1.902-4.873-4.873-6.061-9.032-1.188-4.041-1.783-9.507-1.783-16.162v-9.15c0-6.774.713-12.241 2.02-16.4 1.426-4.159 3.565-7.13 6.417-9.032 2.971-1.901 6.774-2.852 11.527-2.852 4.635 0 8.438.951 11.29 2.852s4.873 4.991 6.18 9.032 2.02 9.507 2.02 16.4v9.15c0 6.774-.594 12.121-1.901 16.281-1.307 4.04-3.328 7.131-6.179 9.032S70.556 300 65.684 300c-4.991-.119-9.032-1.07-11.884-2.971zm16.043-9.982c.832-2.02 1.188-5.467 1.188-10.102v-19.727c0-4.516-.357-7.843-1.188-9.982s-2.139-3.09-4.159-3.09c-1.901 0-3.327 1.07-4.04 3.09-.832 2.139-1.188 5.466-1.188 9.982v19.727c0 4.635.357 8.081 1.188 10.102.713 2.02 2.139 3.09 4.159 3.09 1.901 0 3.208-.951 4.04-3.09zm203.333-15.331v3.446l.358 9.15c.235 2.02.711 3.565 1.545 4.397.711.951 1.898 1.426 3.566 1.426 2.139 0 3.561-.832 4.395-2.496s1.187-4.397 1.31-8.319l12.238.713c.118.594.118 1.307.118 2.258 0 5.823-1.545 10.22-4.753 13.073s-7.725 4.278-13.548 4.278c-7.009 0-11.884-2.258-14.735-6.655s-4.278-11.171-4.278-20.44v-11.052c0-9.507 1.426-16.4 4.397-20.797s7.96-6.536 14.975-6.536c4.871 0 8.672.951 11.287 2.733s4.4 4.635 5.469 8.319c1.069 3.803 1.545 9.032 1.545 15.686v10.815h-23.888zm1.785-26.382c-.716.951-1.192 2.377-1.427 4.397s-.358 5.11-.358 9.27v4.516h10.458v-4.516c0-4.04-.118-7.131-.358-9.27s-.829-3.565-1.54-4.397-1.903-1.307-3.331-1.307c-1.663-.119-2.732.357-3.443 1.307zM19.099 270.766L2.937 212.178h14.142l5.704 26.501c1.426 6.536 2.496 12.121 3.209 16.756h.357c.475-3.328 1.545-8.794 3.208-16.638l5.942-26.62h14.142l-16.4 58.588v28.046H19.218v-28.046h-.119zm112.303-35.177v63.341h-11.171l-1.188-7.725h-.357c-2.971 5.823-7.606 8.794-13.667 8.794-4.159 0-7.249-1.426-9.269-4.159s-2.971-7.011-2.971-12.953v-47.298h14.261v46.466c0 2.852.357 4.872.951 6.061s1.664 1.783 3.09 1.783c1.188 0 2.377-.357 3.565-1.188 1.188-.713 2.02-1.663 2.495-2.852V235.59h14.261zm73.085 0v63.341h-11.171l-1.188-7.725h-.357c-2.971 5.823-7.606 8.794-13.667 8.794-4.159 0-7.249-1.426-9.27-4.159s-2.971-7.011-2.971-12.953v-47.298h14.261v46.466c0 2.852.357 4.872.951 6.061s1.664 1.783 3.09 1.783c1.188 0 2.377-.357 3.565-1.188 1.188-.713 2.02-1.663 2.496-2.852V235.59h14.261zm-34.344-11.883h-14.142v75.106h-13.904v-75.106h-14.142v-11.527h42.188v11.527zm81.523 21.985c-.831-4.04-2.258-6.893-4.159-8.675s-4.635-2.734-7.962-2.734a12.81 12.81 0 0 0-7.368 2.258c-2.258 1.426-4.04 3.446-5.229 5.823h-.119v-33.394h-13.786v89.842h11.765l1.426-5.942h.357c1.069 2.139 2.733 3.803 4.991 5.11 2.258 1.188 4.634 1.901 7.368 1.901 4.872 0 8.319-2.258 10.576-6.655s3.447-11.409 3.447-20.797v-9.982c-.119-7.249-.476-12.835-1.308-16.756zm-13.072 25.788c0 4.635-.238 8.2-.594 10.814s-1.07 4.516-1.902 5.585c-.951 1.07-2.139 1.664-3.565 1.664-1.188 0-2.258-.237-3.209-.832a6.86 6.86 0 0 1-2.377-2.495v-35.889c.475-1.664 1.307-3.09 2.496-4.278 1.188-1.07 2.495-1.664 3.802-1.664 1.426 0 2.615.594 3.328 1.664.832 1.188 1.307 3.09 1.664 5.704.357 2.734.475 6.536.475 11.409v8.319h-.119z" /></svg>