<svg height="300" width="300" xmlns="http://www.w3.org/2000/svg"><g transform="scale(.75)"><rect fill="#282828" height="400" ry="200" width="400"/><path d="m199.917 105.63s-84.292 0-105.448 5.497c-11.328 3.165-20.655 12.493-23.82 23.987-5.497 21.156-5.497 64.969-5.497 64.969s0 43.979 5.497 64.802c3.165 11.494 12.326 20.655 23.82 23.82 21.323 5.664 105.448 5.664 105.448 5.664s84.459 0 105.615-5.497c11.494-3.165 20.655-12.16 23.654-23.82 5.664-20.99 5.664-64.802 5.664-64.802s.166-43.979-5.664-65.135c-2.999-11.494-12.159-20.655-23.654-23.654-21.156-5.83-105.615-5.831-105.615-5.831zm-26.82 53.974 70.133 40.479-70.133 40.312v-80.792z" fill="#fff"/></g></svg>