<svg viewBox="0 0 224 182" xmlns="http://www.w3.org/2000/svg" fill="#444"><path d="M70.29 181.64c84.345 0 130.467-69.876 130.467-130.467 0-1.985-.041-3.96-.13-5.927a93.233 93.233 0 0 0 22.874-23.745c-8.216 3.652-17.058 6.11-26.333 7.219 9.468-5.677 16.736-14.658 20.164-25.363a91.96 91.96 0 0 1-29.118 11.13C179.846 5.575 167.934 0 154.742 0c-25.322 0-45.858 20.535-45.858 45.849 0 3.598.403 7.099 1.19 10.455-38.112-1.916-71.906-20.163-94.52-47.909a45.738 45.738 0 0 0-6.208 23.048c0 15.909 8.095 29.953 20.405 38.17a45.527 45.527 0 0 1-20.767-5.736c-.008.193-.008.381-.008.586 0 22.208 15.807 40.749 36.789 44.951a45.94 45.94 0 0 1-12.091 1.614c-2.951 0-5.825-.291-8.618-.828 5.837 18.22 22.765 31.478 42.835 31.85-15.694 12.302-35.465 19.627-56.953 19.627-3.697 0-7.348-.21-10.938-.634 20.294 13.008 44.393 20.598 70.292 20.598"/></svg>